PathFileType	4	(X/Y/Z)	D:\TRACE\spotREDO_2-26-24\spot_Both_Motion_1_9-v60.trc
DataRate	CameraRate	NumFrames	NumMarkers	Units	OrigDataRate	OrigDataStartFrame	OrigNumFrames
100.00	100.00	      28	9	mm	100.00	876	      7000
Frame#	Time	front left toe			Front right toe			aft left toe			aft right toe			Arm			FL body			FR body			AL Body			AR Body			
		X1	Y1	Z1	X2	Y2	Z2	X3	Y3	Z3	X4	Y4	Z4	X5	Y5	Z5	X6	Y6	Z6	X7	Y7	Z7	X8	Y8	Z8	X9	Y9	Z9	

876	8.750	-160.25482	-3.40040	-448.60370	191.83041	-3.05733	-459.64816	-197.51875	24.16634	144.88948	171.85120	27.79050	173.96721	2.44303	670.49805	-793.04449	-63.14268	549.91180	-530.37793	92.65799	553.05286	-530.36053	-69.08654	572.83948	353.28067	71.98965	576.83301	355.20532	
877	8.760	-160.94705	-3.47373	-448.44794	190.96083	-2.77317	-459.48297	-198.39014	24.21401	145.04953	170.93456	27.57428	173.79665	1.52005	670.54053	-793.12268	-64.88324	549.87146	-531.14966	91.00448	552.97736	-531.23248	-70.22092	573.12891	352.58389	70.80983	577.25549	354.64792	
878	8.770	-162.09793	-3.43755	-448.46417	189.72151	-2.81501	-459.53403	-199.48604	24.38184	144.93799	170.34882	27.53284	173.75116	0.83226	670.59326	-793.26630	-66.28016	549.55017	-531.59937	89.32731	553.00586	-532.04675	-71.33488	573.29437	351.90030	69.65934	577.43494	353.68530	
879	8.780	-163.02609	-3.32433	-448.32031	188.79543	-2.51308	-459.63898	-200.02171	24.38134	145.00302	168.96378	27.22206	173.69113	0.11387	670.51025	-793.40814	-67.63772	549.47266	-532.42426	87.88295	552.90851	-532.67603	-72.29464	573.39185	351.34445	68.58120	577.66992	353.14215	
880	8.790	-163.94298	-3.39845	-448.31500	187.65233	-2.40303	-459.77798	-201.21680	24.27486	145.04762	168.34462	27.44155	173.86415	-0.51859	670.63922	-793.41724	-69.05617	549.23499	-532.88965	86.65781	552.80035	-533.26672	-73.23943	573.18976	350.79639	67.59254	577.71521	352.44650	
881	8.800	-164.98895	-2.88035	-448.30444	186.76268	-2.40142	-459.73083	-202.13347	24.23919	144.96121	167.65518	27.57417	173.86714	-0.95565	670.67297	-793.49695	-70.50163	549.06525	-533.49188	85.09934	552.76465	-533.87134	-74.56386	573.11224	350.17169	66.57219	577.50201	351.98486	
882	8.810	-166.09581	-3.11605	-448.47815	185.61237	-2.28766	-459.83719	-203.23805	24.20144	144.91812	166.29991	27.26588	173.87097	-1.39312	670.72925	-793.57428	-71.45114	549.02753	-533.89063	84.17245	552.69244	-534.35364	-75.56103	572.99451	349.80997	65.53266	577.44281	351.41470	
883	8.820	-166.91985	-2.90545	-448.17758	184.94556	-1.98559	-459.49203	-204.01855	24.30799	145.14049	165.73898	27.15763	173.98141	-1.92990	670.94122	-793.49432	-72.72932	549.06573	-534.39465	82.97818	552.64813	-534.88361	-76.75358	573.11737	349.43842	64.48047	577.50586	350.94580	
884	8.830	-167.95242	-2.71343	-448.14584	183.87350	-2.00727	-459.80069	-205.02074	24.29396	145.09285	164.43481	27.02323	173.92273	-2.39874	670.95679	-793.39545	-73.48829	548.87634	-534.82800	82.27026	552.67828	-535.09064	-77.75713	572.86273	349.06619	63.32574	577.46448	350.79184	
885	8.840	-168.75937	-2.50798	-448.09497	182.85326	-1.84391	-459.68546	-205.94273	24.24553	145.24809	163.54875	26.88816	173.98967	-2.86417	670.93726	-793.29254	-74.36887	548.70160	-535.10760	81.37057	552.62067	-535.49927	-78.94452	572.45905	348.60547	61.95234	577.30994	350.26682	
886	8.850	-169.58319	-2.33904	-448.10242	182.35674	-1.72061	-459.43271	-206.82596	24.00517	145.27600	162.77917	26.99276	174.00133	-3.25503	670.95081	-793.15125	-75.08855	548.58392	-535.66748	80.53398	552.56451	-535.83954	-80.11800	572.31702	348.16669	60.81480	576.97571	349.82925	
887	8.860	-170.72661	-2.05201	-448.18546	181.38147	-1.72038	-459.40338	-207.89182	23.87879	145.37115	161.31479	26.64979	174.00090	-3.77092	670.82214	-793.12427	-75.61039	548.59003	-535.99286	79.80518	552.50641	-536.12384	-81.64481	572.00604	347.80344	59.57429	576.74365	349.70685	
888	8.870	-171.76340	-1.90243	-448.18451	179.87231	-1.26574	-459.39349	-208.97830	23.53288	145.15935	160.66577	26.94183	174.04568	-4.45779	670.81665	-793.15747	-76.30605	548.54694	-536.27875	79.47578	552.22534	-536.21252	-82.69400	572.13647	347.45737	58.36134	576.71155	349.57712	
889	8.880	-172.52632	-1.98353	-448.19711	179.22475	-1.16642	-459.39841	-210.27968	23.89933	145.16571	159.39656	27.25506	174.10429	-6.06841	670.71478	-792.98090	-76.39807	548.44928	-536.52094	79.27252	551.74261	-536.33008	-83.82066	572.38940	347.14346	56.92601	576.79126	349.22781	
890	8.890	-173.64616	-1.79229	-448.17792	178.60684	-1.20306	-458.91812	-211.07811	23.61303	145.16730	158.08606	26.94904	174.12680	-8.74639	670.48541	-793.25208	-76.17067	548.42664	-536.71851	79.42949	551.48053	-536.26807	-85.41087	572.54248	346.91568	55.54586	576.65698	349.20477	
891	8.900	-174.35378	-1.49966	-448.34146	177.64027	-1.60501	-458.58804	-212.37387	23.50464	145.18285	157.47066	27.08642	174.37473	-12.62292	669.97870	-793.58301	-75.62149	548.39594	-536.90216	80.07488	551.27460	-536.17224	-87.02952	572.45215	346.62134	53.94079	576.46729	349.35721	
892	8.910	-174.88190	-0.99907	-448.73276	176.80559	-1.82742	-458.69403	-213.42500	23.29730	145.03424	155.91460	26.86728	174.59497	-17.54861	669.43738	-794.26855	-75.32407	548.17279	-537.13043	81.35216	550.84491	-535.38654	-88.45736	572.48993	346.43982	52.74097	576.28223	349.90018	
893	8.920	-175.55963	-0.56936	-448.85269	176.47527	-1.88608	-458.43344	-214.55872	23.00606	144.96019	155.22037	27.02476	174.84674	-24.08286	669.11719	-795.00702	-72.84031	548.46759	-537.46802	82.55949	550.96033	-535.46027	-90.03149	572.60205	346.15424	51.00734	576.19989	350.00745	
894	8.930	-176.07091	-0.18391	-448.93668	175.73059	-1.71926	-457.80029	-215.79788	23.11940	144.86615	153.98749	26.88165	174.95120	-31.90226	668.78387	-796.47644	-71.28046	548.55548	-537.61591	83.70591	550.83234	-535.03345	-90.95006	572.66522	346.07617	50.08468	576.09149	350.30243	
895	8.940	-176.61664	0.06726	-448.95224	174.95889	-2.01305	-457.70056	-216.84601	23.17491	144.87369	152.84583	27.00896	175.14861	-40.14094	668.19324	-798.30261	-70.28321	548.44073	-537.51367	84.60661	550.71582	-534.77112	-91.46220	572.65582	346.10791	49.47865	576.09998	350.46552	
896	8.950	-177.52896	0.35749	-448.97897	173.89340	-2.03723	-457.79135	-217.28462	23.15455	144.90140	152.49110	26.98916	175.27936	-48.52635	667.73914	-800.32874	-69.97516	548.45190	-537.31390	84.80396	550.72156	-534.48438	-91.45046	572.67578	346.23648	49.49289	576.07764	350.64319	
897	8.960	-178.50903	0.55876	-448.90756	173.20107	-1.62435	-457.74619	-218.09833	23.37843	144.84866	151.73212	26.71501	175.36095	-56.09436	666.91010	-802.29614	-70.37478	548.25446	-536.99133	84.22551	550.57257	-534.28961	-90.55479	572.66095	346.66138	50.22788	576.13800	350.69122	
898	8.970	-179.66011	0.43191	-448.42761	171.84422	-1.27078	-458.29846	-218.90982	23.56742	145.01213	150.82509	26.37853	175.36829	-62.66704	666.82880	-805.20227	-71.57857	547.73560	-536.16412	82.91263	550.42834	-534.12714	-89.19451	572.57416	347.23019	51.59999	576.16046	350.72012	
899	8.980	-181.17200	0.39241	-448.13937	170.18854	-0.83207	-458.23984	-219.36131	23.85994	145.32695	150.24646	26.05935	175.18784	-67.29655	666.97888	-807.92279	-73.49774	547.61633	-535.53699	80.97019	550.40900	-534.17279	-87.18992	572.48749	347.95386	53.80785	576.45209	351.11612	
900	8.990	-182.42932	0.25963	-447.63019	169.03131	-0.18624	-458.54352	-219.64539	24.24208	145.55319	149.98152	25.70708	175.06757	-70.42879	667.14008	-810.43164	-76.08366	547.09900	-534.75842	78.80874	550.41046	-534.11841	-84.62118	572.37360	348.82007	56.27744	576.41791	351.01715	
901	9.000	-183.99004	0.31323	-447.24054	167.33597	0.24586	-458.88202	-219.98906	24.52228	145.80052	149.45543	24.91497	174.59444	-72.25132	667.21521	-812.86011	-78.63798	546.59369	-534.02100	76.50552	550.21045	-534.26563	-82.25210	572.04169	349.71414	58.86312	575.98987	350.98309	
902	9.010	-185.57092	0.20342	-446.69855	166.37674	0.87177	-458.92078	-220.50891	24.75205	146.22733	149.86800	24.74750	174.34813	-72.66563	667.57452	-815.23566	-80.99075	546.16095	-533.08435	73.87617	549.92487	-534.54712	-79.65902	571.98914	350.74911	61.55930	575.86755	351.20175	
903	9.020	-186.70047	0.02695	-446.32297	165.14452	1.03333	-459.21884	-221.12276	24.88779	146.44460	149.82303	24.61266	174.26932	-71.59615	667.68896	-817.01996	-83.32935	545.68201	-532.27753	71.67999	549.56665	-534.52570	-77.82721	571.84381	351.48062	63.30700	576.17249	351.51019	
